<svg 
 xmlns="http://www.w3.org/2000/svg"
 xmlns:xlink="http://www.w3.org/1999/xlink"
 width="85px" height="85px">
<path fill-rule="evenodd"  fill="rgb(185, 183, 183)"
 d="M84.1000,38.958 L84.1000,46.042 L74.522,46.042 C73.858,52.293 71.396,58.004 67.667,62.659 L75.056,70.048 L70.047,75.056 L62.658,67.667 C58.004,71.396 52.293,73.858 46.041,74.522 L46.041,85.000 L38.958,85.000 L38.958,74.494 C32.739,73.789 27.060,71.309 22.439,67.570 L14.952,75.056 L9.943,70.048 L17.456,62.535 C13.783,57.903 11.357,52.238 10.699,46.042 L-0.000,46.042 L-0.000,38.958 L10.727,38.958 C11.426,32.794 13.869,27.162 17.554,22.563 L9.943,14.952 L14.952,9.944 L22.563,17.554 C27.161,13.870 32.794,11.426 38.958,10.727 L38.958,-0.000 L46.041,-0.000 L46.041,10.699 C52.238,11.358 57.903,13.783 62.534,17.457 L70.047,9.944 L75.056,14.952 L67.570,22.439 C71.309,27.060 73.789,32.739 74.494,38.958 L84.1000,38.958 ZM42.555,17.707 C28.832,17.707 17.707,28.832 17.707,42.555 C17.707,56.278 28.832,67.404 42.555,67.404 C56.278,67.404 67.403,56.278 67.403,42.555 C67.403,28.832 56.278,17.707 42.555,17.707 ZM42.444,60.279 C32.656,60.279 24.721,52.344 24.721,42.555 C24.721,32.767 32.656,24.831 42.444,24.831 C52.233,24.831 60.168,32.767 60.168,42.555 C60.168,52.344 52.233,60.279 42.444,60.279 ZM42.444,31.852 C36.533,31.852 31.741,36.644 31.741,42.555 C31.741,48.467 36.533,53.259 42.444,53.259 C48.356,53.259 53.148,48.467 53.148,42.555 C53.148,36.644 48.356,31.852 42.444,31.852 Z"/>
</svg>