<svg 
 xmlns="http://www.w3.org/2000/svg"
 xmlns:xlink="http://www.w3.org/1999/xlink"
 width="83px" height="85px">
<path fill-rule="evenodd"  fill="rgb(185, 183, 183)"
 d="M82.154,64.735 C82.154,65.838 82.092,66.927 81.978,68.000 L79.000,68.000 L75.166,68.000 L64.1000,68.000 L64.1000,62.000 L75.226,62.000 C74.003,51.585 66.050,43.228 55.804,41.360 C54.468,39.965 53.007,38.694 51.452,37.542 L51.452,34.249 C58.981,34.227 65.078,28.143 65.078,20.640 C65.078,13.123 58.959,7.029 51.411,7.029 C51.099,7.029 50.794,7.055 50.487,7.075 C48.945,4.892 47.041,2.987 44.864,1.431 C46.939,0.729 49.156,0.330 51.470,0.330 C62.817,0.330 72.016,9.491 72.016,20.792 C72.016,27.326 68.929,33.131 64.141,36.877 C74.764,41.695 82.154,52.352 82.154,64.735 ZM51.570,20.686 C51.570,27.253 48.451,33.082 43.622,36.826 C54.346,41.612 61.872,52.280 61.888,64.702 C61.889,65.817 61.826,66.916 61.709,68.000 L58.000,68.000 L54.720,68.000 L7.328,68.000 L4.000,68.000 L0.428,68.000 C0.314,66.927 0.252,65.838 0.252,64.735 C0.252,52.296 7.708,41.598 18.409,36.813 C13.589,33.068 10.478,27.245 10.478,20.686 C10.478,9.385 19.677,0.224 31.024,0.224 C42.371,0.224 51.570,9.385 51.570,20.686 ZM7.267,62.000 L54.782,62.000 C53.466,50.791 44.353,41.967 32.979,41.049 C32.335,41.110 31.684,41.147 31.024,41.147 C30.364,41.147 29.713,41.110 29.069,41.049 C17.696,41.967 8.583,50.791 7.267,62.000 ZM30.965,7.029 C23.416,7.029 17.297,13.123 17.297,20.640 C17.297,28.157 23.416,34.251 30.965,34.251 C38.513,34.251 44.632,28.157 44.632,20.640 C44.632,13.123 38.513,7.029 30.965,7.029 Z"/>
</svg>