<svg 
 xmlns="http://www.w3.org/2000/svg"
 xmlns:xlink="http://www.w3.org/1999/xlink"
 width="354px" height="200px">
<path fill-rule="evenodd"  fill="rgb(224, 220, 220)"
 d="M0.000,179.1000 L354.000,179.1000 L354.000,193.684 C354.000,197.173 351.170,200.000 347.679,200.000 L6.321,200.000 C2.830,200.000 0.000,197.173 0.000,193.684 L0.000,179.1000 Z"/>
<path fill-rule="evenodd"  fill="rgb(117, 122, 122)"
 d="M202.286,179.790 C202.286,183.278 199.491,186.000 196.000,186.000 L158.000,186.000 C154.509,186.000 151.714,183.278 151.714,179.790 C151.714,179.776 202.286,179.752 202.286,179.790 Z"/>
<path fill-rule="evenodd"  fill="rgb(70, 76, 82)"
 d="M38.000,0.000 L316.000,0.000 C319.491,0.000 322.1000,3.512 322.1000,7.000 L322.1000,179.1000 L31.000,179.1000 L31.000,7.000 C31.000,3.512 34.509,0.000 38.000,0.000 Z"/>
<path fill-rule="evenodd"  fill="rgb(46, 204, 113)"
 d="M47.000,16.000 L306.1000,16.000 L306.1000,165.000 L47.000,165.000 L47.000,16.000 Z"/>
<path fill-rule="evenodd"  fill="rgb(230, 236, 238)"
 d="M177.000,5.474 C178.397,5.474 179.529,6.605 179.529,8.000 C179.529,9.396 178.397,10.526 177.000,10.526 C175.604,10.526 174.472,9.396 174.472,8.000 C174.472,6.605 175.604,5.474 177.000,5.474 Z"/>
</svg>