<svg 
 xmlns="http://www.w3.org/2000/svg"
 xmlns:xlink="http://www.w3.org/1999/xlink"
 width="83px" height="78px">
<defs>
<filter filterUnits="userSpaceOnUse" id="Filter_0" x="0px" y="0px" width="83px" height="78px"  >
    <feOffset in="SourceAlpha" dx="0" dy="2" />
    <feGaussianBlur result="blurOut" stdDeviation="0" />
    <feFlood flood-color="rgb(0, 0, 0)" result="floodOut" />
    <feComposite operator="atop" in="floodOut" in2="blurOut" />
    <feComponentTransfer><feFuncA type="linear" slope="0.25"/></feComponentTransfer>
    <feMerge>
    <feMergeNode/>
    <feMergeNode in="SourceGraphic"/>
  </feMerge>
</filter>
<filter id="Filter_1">
    <feOffset in="SourceAlpha" dx="0" dy="1" />
    <feGaussianBlur result="blurOut" stdDeviation="0" />
    <feFlood flood-color="rgb(255, 255, 255)" result="floodOut" />
    <feComposite operator="out" in="floodOut" in2="blurOut" result="compOut" />
    <feComposite operator="in" in="compOut" in2="SourceAlpha" />
    <feComponentTransfer><feFuncA type="linear" slope="0.25"/></feComponentTransfer>
    <feBlend mode="normal" in2="SourceGraphic" />
</filter>
<linearGradient id="PSgrad_0" x1="0%" x2="22.495%" y1="97.437%" y2="0%">
  <stop offset="0%" stop-color="rgb(0,0,0)" stop-opacity="0.10196" />
  <stop offset="100%" stop-color="rgb(0,0,0)" stop-opacity="0" />
</linearGradient>
<filter filterUnits="userSpaceOnUse" id="Filter_2" x="40px" y="25px" width="43px" height="28px"  >
    <feOffset in="SourceAlpha" dx="0" dy="2" />
    <feGaussianBlur result="blurOut" stdDeviation="0" />
    <feFlood flood-color="rgb(0, 0, 0)" result="floodOut" />
    <feComposite operator="atop" in="floodOut" in2="blurOut" />
    <feComponentTransfer><feFuncA type="linear" slope="0.2"/></feComponentTransfer>
    <feMerge>
    <feMergeNode/>
    <feMergeNode in="SourceGraphic"/>
  </feMerge>
</filter>
<filter id="Filter_3">
    <feOffset in="SourceAlpha" dx="0" dy="1" />
    <feGaussianBlur result="blurOut" stdDeviation="0" />
    <feFlood flood-color="rgb(255, 255, 255)" result="floodOut" />
    <feComposite operator="out" in="floodOut" in2="blurOut" result="compOut" />
    <feComposite operator="in" in="compOut" in2="SourceAlpha" />
    <feComponentTransfer><feFuncA type="linear" slope="0.2"/></feComponentTransfer>
    <feBlend mode="normal" in2="SourceGraphic" />
</filter>
<filter filterUnits="userSpaceOnUse" id="Filter_4" x="46px" y="31px" width="16px" height="16px"  >
    <feOffset in="SourceAlpha" dx="0" dy="2" />
    <feGaussianBlur result="blurOut" stdDeviation="0" />
    <feFlood flood-color="rgb(0, 0, 0)" result="floodOut" />
    <feComposite operator="atop" in="floodOut" in2="blurOut" />
    <feComponentTransfer><feFuncA type="linear" slope="0.2"/></feComponentTransfer>
    <feMerge>
    <feMergeNode/>
    <feMergeNode in="SourceGraphic"/>
  </feMerge>
</filter>
<linearGradient id="PSgrad_1" x1="0%" x2="70.711%" y1="70.711%" y2="0%">
  <stop offset="50%" stop-color="rgb(0,0,0)" stop-opacity="0.1" />
  <stop offset="50%" stop-color="rgb(255,255,255)" stop-opacity="0.1" />
</linearGradient>

</defs>
<g filter="url(#Filter_0)">
<g filter="url(#Filter_1)">
<path fill-rule="evenodd"  fill="rgb(175, 122, 104)"
 d="M79.000,67.102 C79.000,69.807 76.824,72.000 74.139,72.000 L8.861,72.000 C6.176,72.000 4.000,69.807 4.000,67.102 L4.000,6.920 C4.000,4.215 6.176,2.022 8.861,2.022 L74.139,2.022 C76.824,2.022 79.000,4.215 79.000,6.920 L79.000,67.102 Z"/>
</g></g>
<path fill="url(#PSgrad_0)"
 d="M79.000,67.102 C79.000,69.807 76.824,72.000 74.139,72.000 L8.861,72.000 C6.176,72.000 4.000,69.807 4.000,67.102 L4.000,6.920 C4.000,4.215 6.176,2.022 8.861,2.022 L74.139,2.022 C76.824,2.022 79.000,4.215 79.000,6.920 L79.000,67.102 Z"/>
<path fill-rule="evenodd"  fill-opacity="0.2" fill="rgb(0, 0, 0)"
 d="M58.167,6.916 L55.389,6.916 L55.389,8.315 L58.167,8.315 L58.167,8.315 L58.167,8.315 L58.167,8.114 L58.861,8.114 L58.861,7.615 L58.861,7.615 L58.167,7.615 L58.167,7.615 L58.167,7.615 L58.167,6.916 L58.167,6.916 L58.167,6.916 ZM53.306,6.916 L50.528,6.916 L50.528,8.315 L53.306,8.315 L53.306,6.916 L53.306,6.916 ZM48.445,6.916 L45.667,6.916 L45.667,8.315 L48.445,8.315 L48.445,6.916 L48.445,6.916 ZM43.584,6.916 L40.806,6.916 L40.806,8.315 L43.584,8.315 L43.584,6.916 L43.584,6.916 ZM38.722,6.916 L35.945,6.916 L35.945,8.315 L38.722,8.315 L38.722,6.916 L38.722,6.916 ZM33.861,6.916 L31.084,6.916 L31.084,8.315 L33.861,8.315 L33.861,6.916 L33.861,6.916 ZM29.000,6.916 L26.222,6.916 L26.222,8.315 L29.000,8.315 L29.000,6.916 L29.000,6.916 ZM24.139,6.916 L21.361,6.916 L21.361,8.315 L24.139,8.315 L24.139,6.916 L24.139,6.916 ZM19.278,6.916 L16.500,6.916 L16.500,8.315 L19.278,8.315 L19.278,6.916 L19.278,6.916 ZM14.417,6.916 L11.639,6.916 L11.639,8.315 L14.417,8.315 L14.417,6.916 L14.417,6.916 ZM9.556,6.916 L6.778,6.916 L6.778,8.315 L9.556,8.315 L9.556,6.916 L9.556,6.916 ZM9.458,67.097 L6.680,67.097 L6.680,68.496 L9.458,68.496 L9.458,67.097 L9.458,67.097 ZM14.319,67.097 L11.541,67.097 L11.541,68.496 L14.319,68.496 L14.319,67.097 L14.319,67.097 ZM19.180,67.097 L16.402,67.097 L16.402,68.496 L19.180,68.496 L19.180,67.097 L19.180,67.097 ZM24.041,67.097 L21.263,67.097 L21.263,68.496 L24.041,68.496 L24.041,67.097 L24.041,67.097 ZM28.902,67.097 L26.124,67.097 L26.124,68.496 L28.902,68.496 L28.902,67.097 L28.902,67.097 ZM33.763,67.097 L30.985,67.097 L30.985,68.496 L33.763,68.496 L33.763,67.097 L33.763,67.097 ZM38.624,67.097 L35.847,67.097 L35.847,68.496 L38.624,68.496 L38.624,67.097 L38.624,67.097 ZM43.485,67.097 L40.708,67.097 L40.708,68.496 L43.485,68.496 L43.485,67.097 L43.485,67.097 ZM48.347,67.097 L45.569,67.097 L45.569,68.496 L48.347,68.496 L48.347,67.097 L48.347,67.097 ZM53.208,67.097 L50.430,67.097 L50.430,68.496 L53.208,68.496 L53.208,67.097 L53.208,67.097 ZM58.069,67.097 L55.291,67.097 L55.291,68.496 L58.069,68.496 L58.069,67.097 L58.069,67.097 ZM58.861,64.096 L57.472,64.096 L57.472,66.895 L58.861,66.895 L58.861,64.096 L58.861,64.096 ZM58.861,59.198 L57.472,59.198 L57.472,61.997 L58.861,61.997 L58.861,59.198 L58.861,59.198 ZM58.861,54.299 L57.472,54.299 L57.472,57.098 L58.861,57.098 L58.861,54.299 L58.861,54.299 ZM58.861,49.401 L57.472,49.401 L57.472,52.200 L58.861,52.200 L58.861,49.401 L58.861,49.401 ZM58.861,44.502 L57.472,44.502 L57.472,47.301 L58.861,47.301 L58.861,44.502 L58.861,44.502 ZM58.861,39.604 L57.472,39.604 L57.472,42.403 L58.861,42.403 L58.861,39.604 L58.861,39.604 ZM58.861,34.705 L57.472,34.705 L57.472,37.504 L58.861,37.504 L58.861,34.705 L58.861,34.705 ZM58.861,29.807 L57.472,29.807 L57.472,32.606 L58.861,32.606 L58.861,29.807 L58.861,29.807 ZM58.861,24.908 L57.472,24.908 L57.472,27.707 L58.861,27.707 L58.861,24.908 L58.861,24.908 ZM58.861,20.010 L57.472,20.010 L57.472,22.809 L58.861,22.809 L58.861,20.010 L58.861,20.010 ZM58.861,15.111 L57.472,15.111 L57.472,17.910 L58.861,17.910 L58.861,15.111 L58.861,15.111 ZM58.861,10.213 L57.472,10.213 L57.472,13.012 L58.861,13.012 L58.861,10.213 L58.861,10.213 ZM58.167,6.916 L58.167,7.615 L58.861,7.615 C58.861,7.230 58.550,6.916 58.167,6.916 L58.167,6.916 Z"/>
<path fill-rule="evenodd"  fill="rgb(183, 208, 140)"
 d="M76.222,67.080 L76.222,64.287 C76.222,64.285 76.222,64.283 76.222,64.281 L76.222,36.989 L76.222,9.698 C76.222,9.696 76.222,9.693 76.222,9.691 L76.222,6.898 C76.222,4.193 74.045,2.000 71.361,2.000 L70.203,2.000 L68.814,2.000 L68.583,2.000 L65.806,2.000 L58.861,2.000 C61.546,2.000 63.722,4.193 63.722,6.898 L63.722,9.698 L63.722,10.864 L63.722,63.115 L63.722,64.281 L63.722,67.080 C63.722,69.785 61.546,71.978 58.861,71.978 L65.806,71.978 L68.583,71.978 L68.814,71.978 L70.203,71.978 L71.361,71.978 C74.045,71.978 76.222,69.785 76.222,67.080 Z"/>
<path fill-rule="evenodd"  fill="rgb(144, 169, 107)"
 d="M74.841,64.302 C74.841,64.305 74.841,64.307 74.841,64.309 L74.841,67.102 C74.841,69.807 72.664,72.000 69.980,72.000 L68.822,72.000 L68.591,72.000 C71.275,72.000 73.452,69.807 73.452,67.102 L73.452,64.309 C73.452,64.307 73.452,64.305 73.452,64.302 L73.452,37.011 L73.452,9.719 C73.452,9.717 73.452,9.715 73.452,9.713 L73.452,6.920 C73.452,4.215 71.275,2.022 68.591,2.022 L68.822,2.022 L69.980,2.022 C72.664,2.022 74.841,4.215 74.841,6.920 L74.841,9.713 C74.841,9.715 74.841,9.717 74.841,9.719 L74.841,37.011 L74.841,64.302 ZM72.062,6.920 L72.062,9.713 C72.062,9.715 72.063,9.717 72.063,9.719 L72.062,37.011 L72.063,64.302 C72.063,64.305 72.062,64.307 72.062,64.309 L72.062,67.102 C72.062,69.807 69.886,72.000 67.201,72.000 L66.043,72.000 L65.812,72.000 C68.497,72.000 70.673,69.807 70.673,67.102 L70.673,64.309 C70.673,64.307 70.674,64.305 70.674,64.302 L70.673,37.011 L70.674,9.719 C70.674,9.717 70.673,9.715 70.673,9.713 L70.673,6.920 C70.673,4.215 68.497,2.022 65.812,2.022 L66.043,2.022 L67.201,2.022 C69.886,2.022 72.062,4.215 72.062,6.920 ZM69.277,6.920 L69.277,9.713 C69.277,9.715 69.278,9.717 69.278,9.719 L69.277,37.011 L69.278,64.302 C69.278,64.305 69.277,64.307 69.277,64.309 L69.277,67.102 C69.277,69.807 67.101,72.000 64.416,72.000 L63.258,72.000 L63.027,72.000 C65.712,72.000 67.888,69.807 67.888,67.102 L67.888,64.309 C67.888,64.307 67.889,64.305 67.889,64.302 L67.888,37.011 L67.889,9.719 C67.889,9.717 67.888,9.715 67.888,9.713 L67.888,6.920 C67.888,4.215 65.712,2.022 63.027,2.022 L63.258,2.022 L64.416,2.022 C67.101,2.022 69.277,4.215 69.277,6.920 ZM66.492,6.920 L66.492,9.713 C66.492,9.715 66.493,9.717 66.493,9.719 L66.492,37.011 L66.493,64.302 C66.493,64.305 66.492,64.307 66.492,64.309 L66.492,67.102 C66.492,69.807 64.316,72.000 61.631,72.000 L60.473,72.000 L60.242,72.000 C62.927,72.000 65.103,69.807 65.103,67.102 L65.103,64.309 C65.103,64.307 65.104,64.305 65.104,64.302 L65.103,37.011 L65.104,9.719 C65.104,9.717 65.103,9.715 65.103,9.713 L65.103,6.920 C65.103,4.215 62.927,2.022 60.242,2.022 L60.473,2.022 L61.631,2.022 C64.316,2.022 66.492,4.215 66.492,6.920 Z"/>
<g filter="url(#Filter_2)">
<g filter="url(#Filter_3)">
<path fill-rule="evenodd"  fill="rgb(175, 122, 104)"
 d="M78.1000,27.214 L54.000,27.214 C48.631,27.214 44.278,31.600 44.278,37.011 C44.278,42.422 48.631,46.808 54.000,46.808 L78.1000,46.808 L78.1000,27.214 Z"/>
</g></g>
<g filter="url(#Filter_4)">
<path fill-rule="evenodd"  fill="rgb(75, 73, 79)"
 d="M57.472,37.011 C57.472,38.943 55.917,40.510 54.000,40.510 C52.082,40.510 50.528,38.943 50.528,37.011 C50.528,35.079 52.082,33.512 54.000,33.512 C55.917,33.512 57.472,35.079 57.472,37.011 Z"/>
</g>
<path fill="url(#PSgrad_1)"
 d="M57.472,37.011 C57.472,38.943 55.917,40.510 54.000,40.510 C52.082,40.510 50.528,38.943 50.528,37.011 C50.528,35.079 52.082,33.512 54.000,33.512 C55.917,33.512 57.472,35.079 57.472,37.011 Z"/>
<path fill-rule="evenodd"  fill-opacity="0.122" fill="rgb(255, 255, 255)"
 d="M54.000,27.214 C48.631,27.214 44.278,31.600 44.278,37.011 C44.278,42.422 48.631,46.808 54.000,46.808 L63.722,46.808 L63.722,27.214 L54.000,27.214 Z"/>
</svg>